<mxfile host="app.diagrams.net" modified="2022-10-09T04:06:25.791Z" agent="5.0 (Windows NT 10.0; Win64; x64) AppleWebKit/537.36 (KHTML, like Gecko) Chrome/104.0.5112.102 Safari/537.36 OPR/90.0.4480.117 (Edition std-1)" etag="Fwl4D7EHRg6zIuiX0EMS" version="20.4.0" type="github">
  <diagram id="ijM1EVuEzKt1f36xZ6qT" name="Página-1">
    <mxGraphModel dx="2098" dy="966" grid="1" gridSize="10" guides="1" tooltips="1" connect="1" arrows="1" fold="1" page="1" pageScale="1" pageWidth="827" pageHeight="1169" math="0" shadow="0">
      <root>
        <mxCell id="0" />
        <mxCell id="1" parent="0" />
        <mxCell id="_9C-zm2in-doT5mdY1Q7-1" value="Inicio" style="ellipse;whiteSpace=wrap;html=1;" vertex="1" parent="1">
          <mxGeometry x="90" y="20" width="120" height="80" as="geometry" />
        </mxCell>
        <mxCell id="_9C-zm2in-doT5mdY1Q7-2" value="Raiz&lt;br&gt;Error&lt;br&gt;Decimales deseados&lt;br&gt;leeidos" style="shape=parallelogram;perimeter=parallelogramPerimeter;whiteSpace=wrap;html=1;fixedSize=1;" vertex="1" parent="1">
          <mxGeometry x="80" y="150" width="140" height="80" as="geometry" />
        </mxCell>
        <mxCell id="_9C-zm2in-doT5mdY1Q7-3" value="1/2(num +raiz/num) = aux" style="rounded=0;whiteSpace=wrap;html=1;" vertex="1" parent="1">
          <mxGeometry x="230" y="270" width="170" height="80" as="geometry" />
        </mxCell>
        <mxCell id="_9C-zm2in-doT5mdY1Q7-4" value="Se saca num por medio de multiplicaciones hasta aproximarse a la raíz" style="rounded=0;whiteSpace=wrap;html=1;" vertex="1" parent="1">
          <mxGeometry x="255" y="160" width="120" height="60" as="geometry" />
        </mxCell>
        <mxCell id="_9C-zm2in-doT5mdY1Q7-6" value="num = aux" style="rounded=0;whiteSpace=wrap;html=1;" vertex="1" parent="1">
          <mxGeometry x="705" y="460" width="120" height="60" as="geometry" />
        </mxCell>
        <mxCell id="_9C-zm2in-doT5mdY1Q7-7" value="1/2(num +raiz/num) = aux" style="rounded=0;whiteSpace=wrap;html=1;" vertex="1" parent="1">
          <mxGeometry x="440" y="460" width="120" height="60" as="geometry" />
        </mxCell>
        <mxCell id="_9C-zm2in-doT5mdY1Q7-8" value="((aux - num)/ aux) *100 = error calculado" style="rounded=0;whiteSpace=wrap;html=1;" vertex="1" parent="1">
          <mxGeometry x="435" y="280" width="130" height="60" as="geometry" />
        </mxCell>
        <mxCell id="_9C-zm2in-doT5mdY1Q7-9" value="Fin" style="ellipse;whiteSpace=wrap;html=1;" vertex="1" parent="1">
          <mxGeometry x="910" y="270" width="120" height="80" as="geometry" />
        </mxCell>
        <mxCell id="_9C-zm2in-doT5mdY1Q7-10" value="Se hace una comparación &lt;br&gt;entre el error calculado y el deseado para ver si es el &lt;br&gt;mismo o menor" style="rhombus;whiteSpace=wrap;html=1;" vertex="1" parent="1">
          <mxGeometry x="670" y="220" width="190" height="180" as="geometry" />
        </mxCell>
        <mxCell id="_9C-zm2in-doT5mdY1Q7-11" value="Yetzrai Abisai Vazquez Moreno 4A" style="text;html=1;align=center;verticalAlign=middle;resizable=0;points=[];autosize=1;strokeColor=none;fillColor=none;" vertex="1" parent="1">
          <mxGeometry x="255" y="5" width="210" height="30" as="geometry" />
        </mxCell>
        <mxCell id="_9C-zm2in-doT5mdY1Q7-12" value="" style="endArrow=classic;html=1;rounded=0;" edge="1" parent="1" source="_9C-zm2in-doT5mdY1Q7-1" target="_9C-zm2in-doT5mdY1Q7-2">
          <mxGeometry width="50" height="50" relative="1" as="geometry">
            <mxPoint x="320" y="210" as="sourcePoint" />
            <mxPoint x="370" y="160" as="targetPoint" />
          </mxGeometry>
        </mxCell>
        <mxCell id="_9C-zm2in-doT5mdY1Q7-14" value="" style="endArrow=classic;html=1;rounded=0;" edge="1" parent="1" source="_9C-zm2in-doT5mdY1Q7-2" target="_9C-zm2in-doT5mdY1Q7-4">
          <mxGeometry width="50" height="50" relative="1" as="geometry">
            <mxPoint x="320" y="210" as="sourcePoint" />
            <mxPoint x="370" y="160" as="targetPoint" />
          </mxGeometry>
        </mxCell>
        <mxCell id="_9C-zm2in-doT5mdY1Q7-15" value="" style="endArrow=classic;html=1;rounded=0;" edge="1" parent="1" source="_9C-zm2in-doT5mdY1Q7-4" target="_9C-zm2in-doT5mdY1Q7-3">
          <mxGeometry width="50" height="50" relative="1" as="geometry">
            <mxPoint x="560" y="250" as="sourcePoint" />
            <mxPoint x="610" y="200" as="targetPoint" />
          </mxGeometry>
        </mxCell>
        <mxCell id="_9C-zm2in-doT5mdY1Q7-16" value="" style="endArrow=classic;html=1;rounded=0;" edge="1" parent="1" source="_9C-zm2in-doT5mdY1Q7-3" target="_9C-zm2in-doT5mdY1Q7-8">
          <mxGeometry width="50" height="50" relative="1" as="geometry">
            <mxPoint x="560" y="250" as="sourcePoint" />
            <mxPoint x="610" y="200" as="targetPoint" />
          </mxGeometry>
        </mxCell>
        <mxCell id="_9C-zm2in-doT5mdY1Q7-17" value="" style="endArrow=classic;html=1;rounded=0;" edge="1" parent="1" source="_9C-zm2in-doT5mdY1Q7-8" target="_9C-zm2in-doT5mdY1Q7-10">
          <mxGeometry width="50" height="50" relative="1" as="geometry">
            <mxPoint x="560" y="350" as="sourcePoint" />
            <mxPoint x="610" y="300" as="targetPoint" />
          </mxGeometry>
        </mxCell>
        <mxCell id="_9C-zm2in-doT5mdY1Q7-18" value="" style="endArrow=classic;html=1;rounded=0;" edge="1" parent="1" source="_9C-zm2in-doT5mdY1Q7-10" target="_9C-zm2in-doT5mdY1Q7-9">
          <mxGeometry width="50" height="50" relative="1" as="geometry">
            <mxPoint x="560" y="350" as="sourcePoint" />
            <mxPoint x="610" y="300" as="targetPoint" />
          </mxGeometry>
        </mxCell>
        <mxCell id="_9C-zm2in-doT5mdY1Q7-19" value="" style="endArrow=classic;html=1;rounded=0;" edge="1" parent="1" source="_9C-zm2in-doT5mdY1Q7-10" target="_9C-zm2in-doT5mdY1Q7-6">
          <mxGeometry width="50" height="50" relative="1" as="geometry">
            <mxPoint x="560" y="350" as="sourcePoint" />
            <mxPoint x="610" y="300" as="targetPoint" />
          </mxGeometry>
        </mxCell>
        <mxCell id="_9C-zm2in-doT5mdY1Q7-20" value="" style="endArrow=classic;html=1;rounded=0;" edge="1" parent="1" source="_9C-zm2in-doT5mdY1Q7-6" target="_9C-zm2in-doT5mdY1Q7-7">
          <mxGeometry width="50" height="50" relative="1" as="geometry">
            <mxPoint x="560" y="350" as="sourcePoint" />
            <mxPoint x="610" y="300" as="targetPoint" />
          </mxGeometry>
        </mxCell>
        <mxCell id="_9C-zm2in-doT5mdY1Q7-21" value="" style="endArrow=classic;html=1;rounded=0;" edge="1" parent="1" source="_9C-zm2in-doT5mdY1Q7-7" target="_9C-zm2in-doT5mdY1Q7-8">
          <mxGeometry width="50" height="50" relative="1" as="geometry">
            <mxPoint x="690" y="350" as="sourcePoint" />
            <mxPoint x="740" y="300" as="targetPoint" />
          </mxGeometry>
        </mxCell>
      </root>
    </mxGraphModel>
  </diagram>
</mxfile>
